<svg width="18" height="18" viewBox="0 0 18 18" fill="none" xmlns="http://www.w3.org/2000/svg">
<path d="M3.52677 7.34367C5.02452 10.6053 7.68582 13.1904 10.9896 14.5927L11.5201 14.8291C12.1075 15.0907 12.7685 15.1366 13.3864 14.9586C14.0044 14.7806 14.5397 14.3902 14.8981 13.8563L15.5916 12.8234C15.7001 12.6614 15.7441 12.4646 15.7148 12.2719C15.6855 12.0791 15.585 11.9043 15.4332 11.7819L13.0835 9.88614C13.0016 9.82017 12.9073 9.77141 12.8062 9.7428C12.705 9.71418 12.5991 9.70631 12.4949 9.71964C12.3906 9.73298 12.2901 9.76724 12.1994 9.82039C12.1087 9.87353 12.0297 9.94446 11.9671 10.0289L11.24 11.0095C9.3736 10.0878 7.86287 8.57676 6.94143 6.7102L7.92129 5.98311C8.00573 5.92051 8.07666 5.84149 8.12981 5.7508C8.18295 5.66011 8.21722 5.55961 8.23055 5.45534C8.24389 5.35107 8.23601 5.24518 8.2074 5.14403C8.17879 5.04289 8.13003 4.94856 8.06405 4.86673L6.16832 2.51695C6.04591 2.36518 5.87111 2.26474 5.67834 2.23543C5.48557 2.20612 5.28882 2.25005 5.12683 2.35858L4.08691 3.05603C3.5497 3.41628 3.15783 3.95554 2.9811 4.57774C2.80437 5.19994 2.85426 5.86468 3.12187 6.45353L3.52677 7.34367Z" fill="#145CEF"/>
</svg>
