<svg width="15" height="15" viewBox="0 0 15 15" fill="none" xmlns="http://www.w3.org/2000/svg">
<path d="M12.5 3.00293H2.5C2.16848 3.00293 1.85054 3.13463 1.61612 3.36905C1.3817 3.60347 1.25 3.92141 1.25 4.25293V11.7529C1.25 12.0844 1.3817 12.4024 1.61612 12.6368C1.85054 12.8712 2.16848 13.0029 2.5 13.0029H12.5C12.8315 13.0029 13.1495 12.8712 13.3839 12.6368C13.6183 12.4024 13.75 12.0844 13.75 11.7529V4.25293C13.75 3.92141 13.6183 3.60347 13.3839 3.36905C13.1495 3.13463 12.8315 3.00293 12.5 3.00293ZM12.5 5.94043L7.5 9.27418L2.5 5.94043V4.43855L7.5 7.77168L12.5 4.43855V5.94043Z" fill="#FCFCFC"/>
</svg>
