<svg width="16" height="17" viewBox="0 0 16 17" fill="none" xmlns="http://www.w3.org/2000/svg">
<path d="M8.00002 1.92432C4.12877 1.92432 0.986877 5.0662 0.986877 8.93746C0.986877 12.8087 4.12877 15.9506 8.00002 15.9506C11.8713 15.9506 15.0132 12.8087 15.0132 8.93746C15.0132 5.0662 11.8713 1.92432 8.00002 1.92432ZM11.2541 6.69325C11.1489 7.80133 10.6931 10.4944 10.4616 11.7357C10.3635 12.2617 10.1671 12.437 9.98474 12.4581C9.57798 12.4931 9.2694 12.1916 8.87666 11.9321C8.25951 11.5253 7.90885 11.2728 7.31273 10.8801C6.61843 10.4242 7.06727 10.1718 7.46702 9.76501C7.57222 9.65981 9.36758 8.02575 9.40265 7.87847C9.40752 7.85617 9.40687 7.83301 9.40076 7.81101C9.39465 7.78901 9.38326 7.76884 9.36758 7.75224C9.3255 7.71717 9.2694 7.7312 9.22031 7.73821C9.15719 7.75224 8.17535 8.40446 6.26076 9.69488C5.98024 9.88423 5.72776 9.98242 5.50334 9.9754C5.25087 9.96839 4.77397 9.83514 4.4163 9.71592C3.97448 9.57566 3.63083 9.49851 3.65889 9.25305C3.67291 9.12681 3.84824 9.00058 4.17786 8.86733C6.2257 7.97666 7.58625 7.38756 8.26652 7.10703C10.2162 6.2935 10.6159 6.15324 10.8824 6.15324C10.9385 6.15324 11.0718 6.16727 11.1559 6.2374C11.2261 6.2935 11.2471 6.37065 11.2541 6.42675C11.2471 6.46883 11.2611 6.59507 11.2541 6.69325Z" fill="#25A4E2"/>
</svg>
