<svg width="16" height="15" viewBox="0 0 16 15" fill="none" xmlns="http://www.w3.org/2000/svg">
<path d="M8 15.0029C4.4645 15.0029 2.69675 15.0029 1.598 13.9042C0.5 12.8069 0.5 11.0384 0.5 7.50293C0.5 3.96743 0.5 2.19968 1.598 1.10093C2.6975 0.00292969 4.4645 0.00292969 8 0.00292969C9.04925 0.00292969 9.9425 0.00292977 10.709 0.0314298C10.1448 0.675778 9.84673 1.51051 9.87509 2.36647C9.90346 3.22243 10.2562 4.03559 10.8618 4.64118C11.4673 5.24676 12.2805 5.59947 13.1365 5.62784C13.9924 5.6562 14.8272 5.3581 15.4715 4.79393C15.5 5.56043 15.5 6.45368 15.5 7.50293C15.5 11.0384 15.5 12.8062 14.4012 13.9042C13.304 15.0029 11.5355 15.0029 8 15.0029Z" fill="#145CEF"/>
<path d="M15.5 2.25293C15.5 2.84967 15.2629 3.42196 14.841 3.84392C14.419 4.26588 13.8467 4.50293 13.25 4.50293C12.6533 4.50293 12.081 4.26588 11.659 3.84392C11.2371 3.42196 11 2.84967 11 2.25293C11 1.65619 11.2371 1.0839 11.659 0.66194C12.081 0.239983 12.6533 0.00292969 13.25 0.00292969C13.8467 0.00292969 14.419 0.239983 14.841 0.66194C15.2629 1.0839 15.5 1.65619 15.5 2.25293Z" fill="#145CEF"/>
</svg>
